<svg xmlns="http://www.w3.org/2000/svg" width="24" height="24" viewBox="0 0 24 24"> <g fill="none" fill-rule="evenodd"> <g fill="#1A1A1A" fill-rule="nonzero"> <g> <g> <g> <path d="M22.738 6.143h-.103V2.172C22.635.974 21.661 0 20.463 0H3.537C2.339 0 1.365.974 1.365 2.172v3.97h-.103C.566 6.143 0 6.71 0 7.405V8.3c0 .39.177.738.455.97v8.146c0 .41.197.774.5 1.005v1.27c0 .318.187.594.456.725v3.006c0 .32.26.579.579.579h1.365c.319 0 .579-.26.579-.58v-.876h16.132v.877c0 .32.26.579.58.579h1.364c.32 0 .58-.26.58-.58v-2.55c.268-.131.455-.407.455-.725V18.42c.303-.23.5-.595.5-1.005V9.269c.278-.232.455-.58.455-.97v-.895c0-.695-.566-1.261-1.262-1.261zM2.068 2.172c0-.81.659-1.469 1.469-1.469h16.926c.81 0 1.469.659 1.469 1.469v3.97h-1.618V2.194c0-.21-.106-.4-.284-.51-.179-.11-.397-.12-.585-.027l-1.315.658c-.158.079-.334.12-.51.12h-3.277c-.176 0-.353-.041-.51-.12l-1.316-.658c-.164-.082-.353-.084-.517-.009-.164-.075-.353-.073-.517.01l-1.316.657c-.157.079-.334.12-.51.12H6.38c-.176 0-.352-.041-.51-.12l-1.315-.658c-.188-.093-.406-.084-.585.027-.178.11-.284.3-.284.51v3.95H2.068V2.172zm19.818 21.125H20.77v-1.105c0-.194-.157-.351-.351-.351H3.582c-.194 0-.351.157-.351.351v1.105H2.114v-2.8h7.229c.657 0 1.318.054 1.967.162l.719.12c.686.114 1.387.172 2.082.172h7.775v2.346zm.455-3.152c0 .057-.046.103-.103.103H14.11c-.657 0-1.319-.054-1.967-.162l-.719-.12c-.686-.115-1.387-.173-2.082-.173h-7.58c-.058 0-.104-.046-.104-.103v-1.015l.058.001h3.23c.194 0 .352-.157.352-.351 0-.194-.158-.352-.352-.352h-3.23c-.308 0-.559-.25-.559-.558V9.556c.034.003.069.005.104.005h18.521c-.834 1.261-2.395 2.398-4.472 3.242-2.464 1-5.434 1.53-8.59 1.53-.193 0-.35.157-.35.352 0 .194.157.351.35.351 3.246 0 6.308-.547 8.855-1.582 2.409-.979 4.183-2.355 5.028-3.893h.53c-.395 2.35-1.251 4.467-2.426 5.984-1.229 1.589-2.7 2.428-4.25 2.428H6.22c-.194 0-.351.158-.351.352 0 .194.157.351.351.351h16.062l.058-.001v1.47zm.5-2.73c0 .308-.25.558-.558.558H17.03c2.339-1.323 4.173-4.414 4.817-8.412h.891c.035 0 .07-.002.104-.005v7.859zm.456-9.116c0 .308-.25.559-.559.559H1.262c-.308 0-.559-.25-.559-.559v-.895c0-.308.25-.558.559-.558h15.925c.194 0 .352-.157.352-.352 0-.194-.158-.351-.352-.351H4.39V2.36l1.166.583c.255.127.54.195.825.195h3.277c.285 0 .57-.068.825-.195l1.166-.583v3.103c0 .194.158.352.352.352.194 0 .352-.158.352-.352V2.36l1.166.583c.255.127.54.195.825.195h3.277c.285 0 .57-.068.825-.195l1.166-.583v3.783h-1.093c-.194 0-.351.157-.351.351 0 .195.157.352.351.352h4.22c.308 0 .559.25.559.558V8.3z" transform="translate(-262 -838) translate(135 710) translate(0 128) translate(127)"></path> </g> </g> </g> </g> </g> </svg>