<svg xmlns="http://www.w3.org/2000/svg" width="24" height="24" viewBox="0 0 24 24"> <g fill="none" fill-rule="evenodd"> <g fill="#1A1A1A" fill-rule="nonzero"> <g> <g> <g> <path d="M22.76 11.977H3.2V3.194C3.199 1.87 4.27.798 5.594.798h.798v1.637c-.93.19-1.597 1.008-1.597 1.956 0 .22.18.4.4.4h3.193c.22 0 .4-.18.4-.4 0-.948-.668-1.766-1.597-1.956V.4C7.19.18 7.012 0 6.79 0H5.595C3.83 0 2.4 1.43 2.4 3.194v8.783H1.202c-.661 0-1.197.536-1.197 1.197 0 .662.536 1.198 1.197 1.198.108 2.906 1.354 5.988 3.218 6.902-.603.644-.57 1.655.074 2.258.644.602 1.655.57 2.257-.075.484-.516.57-1.289.212-1.9h10.033c-.144.243-.221.518-.224.8-.005.881.705 1.6 1.587 1.606.882.005 1.601-.706 1.607-1.588.002-.408-.152-.802-.431-1.1 1.864-.915 3.11-3.997 3.225-6.903.662 0 1.198-.536 1.198-1.198 0-.661-.536-1.197-1.198-1.197zM7.19 3.26c.342.12.612.39.732.732h-2.26c.22-.624.904-.952 1.528-.732zm5.99 9.515h5.59v4.392h-5.59v-4.392zm-12.376.4c0-.221.179-.4.4-.4H12.38v.799H1.202c-.22 0-.399-.18-.399-.4zm4.79 9.98c-.44 0-.798-.358-.798-.799 0-.44.358-.798.799-.798.44 0 .798.357.798.798 0 .441-.357.799-.798.799zm12.776 0c-.441 0-.799-.358-.799-.799 0-.44.358-.798.799-.798.44 0 .798.357.798.798 0 .441-.357.799-.798.799zm0-2.396H5.594c-1.777 0-3.453-3.05-3.593-6.387h10.38v3.992c0 .22.178.4.399.4.22 0 .399-.18.399-.4v-.4h.798v.4c0 .22.18.4.4.4.22 0 .399-.18.399-.4v-.4h.798v.4c0 .22.18.4.4.4.22 0 .399-.18.399-.4v-.4h.798v.4c0 .22.179.4.4.4.22 0 .399-.18.399-.4v-.4h.798v.4c0 .22.179.4.4.4.22 0 .399-.18.399-.4v-3.992h2.395c-.14 3.337-1.817 6.387-3.593 6.387zm4.391-7.186h-3.193v-.798h3.193c.22 0 .4.179.4.4 0 .22-.18.398-.4.398z" transform="translate(-394 -838) translate(135 710) translate(0 128) translate(259)"></path> <path d="M7.19 5.988c0-.22-.178-.399-.398-.399-.22 0-.4.179-.4.4v.399c0 .22.179.399.4.399.22 0 .399-.179.399-.4v-.399zM7.19 7.984c0-.22-.178-.399-.398-.399-.22 0-.4.179-.4.4v.399c0 .22.179.399.4.399.22 0 .399-.179.399-.4v-.399zM6.792 9.581c-.221 0-.4.179-.4.4v.399c0 .22.179.399.4.399.22 0 .399-.179.399-.4V9.98c0-.22-.179-.399-.4-.399zM8.788 5.988c0-.22-.18-.399-.4-.399-.22 0-.399.179-.399.4v.399c0 .22.179.399.4.399.22 0 .399-.179.399-.4v-.399zM8.788 7.984c0-.22-.18-.399-.4-.399-.22 0-.399.179-.399.4v.399c0 .22.179.399.4.399.22 0 .399-.179.399-.4v-.399zM8.388 9.581c-.22 0-.399.179-.399.4v.399c0 .22.179.399.4.399.22 0 .399-.179.399-.4V9.98c0-.22-.18-.399-.4-.399zM5.594 5.988c0-.22-.179-.399-.4-.399-.22 0-.399.179-.399.4v.399c0 .22.18.399.4.399.22 0 .399-.179.399-.4v-.399zM5.594 7.984c0-.22-.179-.399-.4-.399-.22 0-.399.179-.399.4v.399c0 .22.18.399.4.399.22 0 .399-.179.399-.4v-.399zM5.195 9.581c-.22 0-.4.179-.4.4v.399c0 .22.18.399.4.399.22 0 .399-.179.399-.4V9.98c0-.22-.179-.399-.4-.399z" transform="translate(-394 -838) translate(135 710) translate(0 128) translate(259)"></path> </g> </g> </g> </g> </g> </svg>